<?xml version="1.0" standalone="no"?>
<!DOCTYPE svg PUBLIC "-//W3C//DTD SVG 20010904//EN"
 "http://www.w3.org/TR/2001/REC-SVG-20010904/DTD/svg10.dtd">
<svg version="1.0" xmlns="http://www.w3.org/2000/svg"
 width="1920.000000pt" height="1920.000000pt" viewBox="0 0 1920.000000 1920.000000"
 preserveAspectRatio="xMidYMid meet">
<metadata>
Created by potrace 1.11, written by Peter Selinger 2001-2013
</metadata>
<g transform="translate(0.000000,1920.000000) scale(0.100000,-0.100000)"
fill="#000000" stroke="none">
<path d="M16587 13633 c-3 -7 -2 -8037 2 -8055 0 -4 588 -6 1306 -6 l1305 0 0
4034 0 4034 -1304 0 c-718 0 -1307 -3 -1309 -7z"/>
<path d="M13112 13613 c-39 -13 -53 -26 -69 -63 -7 -17 -9 -392 -7 -1155 3
-1131 4 -1235 15 -1235 3 0 5 -9 4 -21 -1 -11 5 -48 12 -82 8 -34 16 -71 18
-82 11 -50 29 -111 35 -120 4 -5 10 -23 14 -40 9 -37 85 -191 118 -237 62 -89
109 -140 203 -222 17 -15 37 -33 46 -41 9 -8 20 -15 26 -15 6 0 16 -6 22 -14
7 -8 31 -25 54 -37 61 -32 159 -80 182 -89 51 -20 106 -40 110 -40 3 0 10 -2
17 -4 74 -21 92 -24 100 -20 4 3 8 1 8 -3 0 -5 8 -9 18 -10 9 -1 28 -4 42 -7
14 -3 48 -8 75 -11 28 -3 73 -9 100 -12 71 -8 358 -8 435 0 137 15 157 19 240
38 319 74 562 223 732 450 38 51 122 199 112 199 -2 0 2 10 10 23 7 12 22 47
31 77 10 30 20 59 23 65 3 5 7 16 8 25 1 8 9 49 19 90 9 41 19 95 21 120 3 25
8 56 11 70 3 14 7 540 8 1170 2 1132 2 1145 -18 1182 -32 59 -50 62 -337 62
-278 0 -294 -3 -334 -57 -21 -28 -21 -30 -22 -1140 0 -612 -4 -1130 -8 -1152
-3 -23 -8 -52 -11 -65 -3 -14 -8 -41 -12 -60 -11 -61 -71 -195 -100 -228 -7
-7 -13 -17 -13 -21 0 -13 -118 -127 -148 -142 -15 -8 -29 -17 -32 -21 -9 -12
-98 -47 -104 -41 -3 4 -6 2 -6 -4 0 -10 -35 -20 -100 -30 -14 -2 -48 -7 -76
-11 -77 -12 -240 -6 -316 12 -126 29 -229 82 -316 160 -81 74 -166 246 -186
376 -3 19 -8 46 -12 60 -3 14 -7 532 -8 1151 -1 1053 -2 1127 -19 1152 -38 59
-46 60 -324 61 -176 1 -267 -2 -291 -11z"/>
<path d="M100 9120 c-37 -7 -68 -32 -80 -64 -15 -41 -14 -3398 2 -3442 25 -69
-18 -66 888 -61 448 2 829 7 845 10 17 4 41 9 55 11 14 3 27 5 30 6 3 2 8 2
11 2 19 -3 173 54 248 90 194 96 334 234 430 425 35 69 90 233 97 288 1 11 3
20 4 20 2 0 9 110 10 180 6 207 -71 430 -205 595 -62 75 -139 149 -184 176
-17 10 -31 22 -31 26 0 4 -5 8 -11 8 -6 0 -24 10 -41 21 l-29 21 45 27 c171
98 329 315 361 496 2 11 4 20 5 20 15 0 20 328 7 400 -35 185 -114 341 -240
468 -84 85 -157 133 -302 199 -62 27 -189 55 -340 74 -61 7 -1540 11 -1575 4z
m440 -400 c0 6 10 6 26 0 14 -6 23 -7 21 -2 -6 9 95 8 111 -1 6 -4 13 -4 16 1
5 9 47 9 63 -1 7 -4 14 -4 17 1 5 9 47 9 63 -1 7 -4 14 -4 17 1 5 9 47 9 63
-1 7 -4 14 -4 17 1 5 9 47 9 63 -1 7 -4 14 -4 16 0 4 7 67 9 75 3 6 -5 28 -6
37 -1 14 7 106 7 111 -1 2 -3 18 -3 34 2 17 5 32 5 35 0 3 -5 16 -5 30 0 16 6
25 6 25 -1 0 -6 6 -6 19 0 10 6 20 9 22 7 2 -2 42 -7 89 -11 166 -13 251 -35
350 -92 99 -57 192 -185 207 -283 2 -14 7 -37 12 -51 10 -29 7 -196 -4 -249
-21 -104 -78 -207 -154 -277 -42 -40 -164 -109 -208 -118 -10 -2 -40 -8 -66
-14 -26 -6 -78 -14 -115 -17 -82 -7 -1041 -11 -1043 -4 -4 12 -6 1106 -2 1112
2 4 15 3 28 -2 16 -6 25 -6 25 0z m1095 -1523 c17 -4 39 -9 50 -11 26 -4 128
-39 135 -46 3 -3 22 -14 43 -24 21 -11 48 -29 60 -39 12 -11 31 -27 42 -36 68
-55 157 -199 169 -273 3 -15 8 -33 12 -39 11 -18 12 -212 2 -271 -41 -236
-220 -423 -458 -479 -93 -21 -137 -23 -665 -23 l-540 -1 0 628 -1 628 561 -4
c308 -2 574 -7 590 -10z"/>
<path d="M4385 9122 c-50 -7 -63 -13 -94 -41 -18 -16 -33 -33 -33 -38 1 -4 -5
-21 -13 -38 -17 -39 -145 -375 -149 -395 -3 -8 -10 -28 -17 -45 -6 -16 -13
-34 -15 -40 -4 -12 -277 -734 -328 -864 -20 -51 -36 -99 -36 -107 0 -8 -4 -14
-10 -14 -5 0 -9 -3 -8 -7 2 -8 -21 -81 -31 -98 -3 -5 -6 -14 -7 -20 -1 -5 -8
-23 -15 -40 -7 -16 -13 -32 -13 -35 -1 -3 -5 -11 -9 -17 -5 -7 -6 -13 -3 -13
3 0 -7 -28 -23 -62 -15 -35 -28 -65 -29 -68 -2 -14 -13 -45 -52 -145 -79 -204
-100 -261 -100 -268 0 -5 -6 -23 -14 -40 -7 -18 -28 -70 -46 -117 -17 -47 -40
-106 -51 -132 -10 -26 -19 -54 -19 -62 0 -9 -5 -16 -10 -16 -6 0 -9 -3 -8 -7
2 -11 -13 -66 -22 -78 -3 -5 -14 -30 -23 -55 -9 -25 -22 -58 -28 -75 -7 -16
-13 -34 -15 -40 -1 -5 -8 -23 -15 -40 -7 -16 -13 -33 -13 -37 -1 -3 -4 -10 -8
-14 -5 -4 -8 -14 -8 -22 0 -8 -6 -28 -14 -45 -33 -74 -108 -285 -113 -320 -3
-22 0 -44 7 -52 7 -8 9 -15 6 -15 -11 0 16 -25 41 -38 14 -8 77 -12 171 -12
138 0 151 2 182 22 29 20 77 94 85 132 1 6 7 24 13 39 7 16 12 31 12 34 0 3 6
19 14 36 8 18 58 150 112 295 l97 262 89 0 c48 1 414 1 813 1 399 0 736 0 750
-1 14 0 25 -6 25 -14 0 -7 10 -38 21 -67 31 -78 77 -199 84 -219 1 -3 5 -14
10 -25 4 -11 30 -78 57 -150 27 -71 54 -139 59 -150 4 -11 18 -47 30 -79 25
-68 57 -103 103 -112 18 -3 95 -4 172 -2 130 3 141 4 166 27 39 35 44 77 18
153 -21 62 -24 71 -50 133 -7 17 -34 91 -61 165 -27 74 -54 144 -59 155 -10
22 -200 523 -204 540 -2 6 -8 24 -15 40 -19 48 -65 170 -67 175 0 3 -4 14 -9
25 -29 76 -75 196 -86 230 -7 22 -17 44 -21 49 -4 6 -8 16 -8 23 0 7 -9 32
-19 56 -23 50 -36 89 -33 100 1 4 -3 7 -10 7 -6 0 -8 3 -5 7 4 3 3 11 -1 17
-5 6 -19 40 -32 76 -12 36 -27 76 -33 90 -5 14 -11 30 -12 35 -3 12 -46 125
-81 210 -13 33 -24 65 -24 70 -1 6 -9 28 -20 50 -11 22 -19 43 -20 47 0 4 -5
19 -12 35 -6 15 -13 37 -15 47 -2 11 -7 24 -12 30 -4 6 -11 20 -14 31 -3 11
-14 43 -25 70 -10 28 -40 106 -66 175 -84 223 -108 285 -116 305 -5 11 -23 58
-40 105 -17 47 -35 94 -40 105 -4 11 -16 41 -25 66 -19 53 -55 95 -93 111 -24
10 -368 18 -417 10z m215 -574 c12 -35 29 -78 37 -97 8 -18 16 -39 18 -45 2
-11 11 -37 25 -71 4 -11 13 -36 20 -55 6 -19 18 -46 25 -60 7 -14 14 -29 15
-35 4 -16 11 -38 23 -70 7 -16 12 -32 13 -35 0 -3 6 -18 13 -35 7 -16 17 -41
21 -55 5 -14 25 -68 45 -120 20 -52 37 -99 38 -105 2 -5 8 -19 14 -30 6 -11
12 -23 12 -27 3 -14 65 -185 96 -263 5 -11 9 -23 10 -27 2 -5 4 -10 5 -13 1
-3 3 -8 4 -12 1 -5 10 -25 19 -47 9 -21 17 -46 17 -55 0 -9 4 -21 9 -26 11
-12 57 -137 53 -147 -1 -5 3 -8 8 -8 6 0 10 -6 10 -14 0 -11 19 -64 50 -141
21 -49 50 -137 50 -148 0 -9 -153 -12 -677 -11 -373 1 -681 2 -685 3 -7 1 -4
10 92 261 34 91 63 171 63 178 0 6 4 12 8 12 4 0 11 15 14 33 4 17 10 37 13
42 4 6 7 15 9 20 2 10 208 557 220 585 3 8 7 17 7 20 1 5 23 62 36 95 36 87
124 332 122 338 -1 4 3 7 8 7 6 0 9 3 8 8 -3 6 22 79 42 127 5 11 14 37 21 57
7 20 16 35 20 33 3 -3 16 -33 29 -67z"/>
<path d="M6774 9122 c-26 -5 -61 -39 -72 -71 -5 -15 -8 -743 -8 -1726 1 -1621
2 -1702 19 -1728 10 -16 30 -32 45 -38 29 -11 1639 -8 1682 4 14 4 50 12 80
18 190 37 374 133 504 262 115 114 167 192 227 343 30 74 33 85 45 148 2 16 7
32 9 36 7 11 18 144 18 215 0 95 -10 176 -34 262 -20 75 -76 205 -91 211 -4 2
-8 8 -8 14 0 43 -239 298 -279 298 -6 0 -11 5 -11 10 0 6 -7 10 -15 10 -8 0
-15 5 -15 10 0 6 -6 10 -13 10 -7 0 -18 5 -25 12 -8 8 -1 16 28 32 90 49 227
184 278 275 8 13 22 39 32 57 18 31 41 98 61 174 17 65 32 320 19 320 -3 0 -6
17 -6 38 -1 20 -5 49 -8 65 -3 15 -8 37 -10 50 -12 67 -34 125 -79 212 -55
108 -152 219 -252 290 -72 50 -205 116 -270 131 -96 24 -206 44 -270 50 -78 7
-1542 13 -1581 6z m561 -403 c6 0 25 2 43 4 18 2 35 0 38 -5 3 -5 10 -5 17 -1
16 10 58 10 63 1 3 -5 10 -5 17 -1 16 10 58 10 63 1 3 -5 10 -5 17 -1 16 10
58 10 63 1 3 -5 10 -5 17 -1 16 10 58 10 63 1 3 -5 10 -5 17 -1 10 6 60 8 72
3 12 -5 31 -6 40 -1 14 7 106 7 111 -1 2 -3 18 -3 34 2 17 5 32 5 35 0 3 -5
16 -5 30 0 15 6 25 6 25 0 0 -5 12 -5 29 0 16 4 31 6 34 4 2 -2 30 -7 63 -10
47 -4 146 -21 174 -29 41 -12 143 -59 165 -75 92 -69 170 -183 191 -280 9 -46
11 -245 2 -290 -20 -100 -67 -190 -134 -255 -52 -52 -61 -59 -104 -86 -28 -17
-105 -49 -133 -55 -10 -2 -26 -5 -35 -8 -80 -24 -159 -28 -687 -29 -434 -2
-495 0 -496 13 -1 8 -2 255 -3 549 -1 373 2 538 10 545 6 7 39 10 80 8 38 -1
74 -3 79 -3z m985 -1522 c84 -17 161 -43 200 -67 8 -5 30 -17 47 -26 48 -24
157 -136 191 -196 53 -94 81 -208 84 -343 1 -45 -17 -145 -38 -208 -26 -79
-94 -182 -159 -240 -29 -26 -120 -86 -136 -89 -8 -2 -17 -7 -20 -11 -5 -7 -71
-28 -134 -42 -11 -3 -31 -8 -45 -11 -33 -8 -1140 -13 -1141 -5 -3 20 -4 1219
0 1234 3 17 30 18 565 14 308 -2 572 -7 586 -10z"/>
<path d="M11046 9119 c-37 -10 -86 -42 -86 -56 0 -7 -4 -13 -10 -13 -5 0 -15
-19 -21 -42 -7 -24 -16 -47 -19 -53 -6 -8 -30 -72 -35 -95 -1 -3 -7 -18 -14
-35 -7 -16 -21 -52 -31 -80 -10 -27 -39 -104 -65 -170 -25 -66 -50 -131 -55
-145 -4 -14 -14 -38 -21 -55 -7 -16 -13 -32 -13 -35 -1 -3 -6 -18 -13 -35 -17
-45 -26 -69 -28 -75 -6 -19 -18 -49 -27 -70 -6 -14 -13 -29 -14 -35 -4 -15
-41 -115 -55 -150 -7 -16 -13 -34 -15 -40 -4 -16 -165 -438 -175 -460 -12 -27
-70 -188 -72 -200 -1 -5 -4 -12 -7 -15 -7 -7 -32 -73 -33 -87 0 -7 -4 -13 -9
-13 -5 0 -7 -4 -4 -8 3 -5 -1 -20 -8 -34 -8 -14 -22 -50 -31 -79 -10 -30 -29
-79 -42 -109 -13 -30 -25 -61 -27 -70 -2 -8 -8 -26 -13 -40 -6 -14 -40 -104
-76 -200 -36 -97 -72 -191 -80 -210 -18 -44 -26 -69 -27 -75 0 -3 -7 -19 -15
-35 -9 -17 -13 -30 -10 -30 4 0 -1 -12 -9 -27 -8 -16 -34 -80 -57 -143 -47
-128 -68 -184 -105 -280 -25 -64 -54 -163 -54 -187 0 -7 16 -28 35 -48 l36
-35 154 0 c128 0 159 3 184 18 17 9 34 25 37 35 3 9 9 17 14 17 7 0 19 33 21
57 0 5 4 13 9 18 5 6 21 46 36 89 15 44 33 91 41 105 7 15 13 34 13 43 0 9 5
20 10 23 6 4 8 11 5 16 -4 5 -1 9 5 9 6 0 9 4 6 8 -2 4 2 23 11 42 21 47 24
56 79 205 26 72 49 132 50 133 2 3 1477 5 1635 3 32 -1 38 -5 44 -28 3 -16 13
-41 20 -58 7 -16 68 -174 135 -349 67 -176 127 -328 133 -337 24 -39 71 -49
227 -49 l149 0 35 34 c28 26 36 41 36 67 0 40 0 40 -125 369 -54 140 -97 261
-98 268 0 6 -4 12 -9 12 -4 0 -8 7 -8 16 0 8 -9 39 -21 67 -31 77 -36 89 -48
122 -6 17 -16 44 -22 60 -7 17 -13 35 -15 40 -1 6 -17 46 -34 90 -35 91 -49
129 -114 305 -26 69 -51 134 -56 145 -5 11 -41 106 -80 210 -87 231 -179 476
-230 610 -21 55 -66 174 -100 265 -65 174 -122 321 -135 355 -4 11 -9 25 -10
30 -3 9 -45 120 -65 170 -4 11 -18 47 -30 80 -26 71 -39 104 -51 127 -5 10 -9
25 -9 33 0 8 -4 15 -10 15 -5 0 -10 6 -10 13 0 7 -11 23 -25 35 -14 12 -25 19
-25 17 0 -3 -10 0 -22 7 -25 13 -386 19 -432 7z m277 -679 c13 -36 38 -101 55
-145 16 -44 44 -118 61 -165 18 -47 36 -94 41 -105 10 -25 22 -57 26 -70 1 -5
6 -21 12 -35 5 -14 10 -27 10 -30 1 -3 14 -36 30 -75 16 -38 29 -73 30 -78 1
-4 8 -22 15 -40 8 -17 20 -50 27 -72 7 -22 15 -44 19 -50 3 -5 6 -15 7 -21 1
-6 9 -27 17 -45 13 -30 49 -126 53 -139 0 -3 4 -12 7 -20 12 -28 30 -75 32
-82 2 -5 4 -10 5 -13 1 -3 3 -8 5 -12 1 -5 7 -21 13 -36 7 -16 12 -32 12 -37
0 -5 7 -26 16 -47 22 -50 27 -63 64 -163 17 -47 35 -94 40 -105 5 -11 11 -29
12 -40 3 -19 -8 -19 -680 -20 -448 0 -682 3 -682 10 0 10 33 103 50 140 5 11
66 173 135 360 70 187 137 367 150 400 13 33 40 105 60 160 20 55 40 109 45
120 8 19 90 238 112 300 6 17 17 44 23 60 13 32 48 126 51 135 0 3 6 18 12 33
7 16 12 30 12 31 0 2 7 21 16 42 l16 39 23 -60 c13 -33 34 -89 48 -125z"/>
<path d="M13403 9115 c-40 -14 -59 -35 -70 -76 -14 -53 -9 -3388 5 -3421 6
-16 26 -37 44 -48 31 -20 46 -21 303 -18 269 3 270 3 297 27 15 13 30 38 34
55 5 17 9 324 10 681 1 358 2 655 3 660 0 6 12 -3 25 -18 23 -27 120 -135 176
-197 14 -15 54 -60 90 -101 95 -106 162 -182 174 -195 6 -6 38 -42 71 -80 33
-37 81 -91 107 -119 26 -28 56 -62 68 -75 26 -31 113 -130 143 -162 12 -13 49
-55 82 -92 33 -37 71 -80 85 -95 14 -16 57 -64 95 -107 39 -43 86 -95 106
-116 64 -65 73 -67 421 -68 344 -1 342 -1 373 61 27 51 11 91 -72 188 -140
161 -177 204 -188 215 -5 6 -37 42 -70 81 -33 38 -67 76 -75 86 -8 9 -31 35
-50 58 -19 23 -48 57 -65 76 -16 18 -48 54 -70 79 -22 26 -53 62 -70 80 -16
18 -49 56 -72 83 -24 28 -55 64 -70 81 -16 17 -46 52 -68 78 -22 26 -44 52
-50 58 -5 6 -39 45 -74 86 -35 41 -74 84 -85 95 -12 11 -39 43 -61 70 -22 28
-51 62 -65 76 -14 15 -43 48 -65 75 -22 26 -44 52 -50 58 -18 20 -130 151
-143 168 -11 14 -9 20 10 40 13 13 50 54 83 92 33 38 74 84 90 102 17 18 53
58 80 90 28 31 64 72 80 89 17 18 53 59 80 90 28 32 57 66 65 75 24 27 143
162 165 186 27 29 70 78 124 139 24 28 69 79 100 113 31 35 70 78 86 96 17 17
55 61 85 96 30 36 64 74 75 85 11 11 36 38 54 60 19 22 55 63 80 91 129 142
124 135 118 180 -5 46 -28 77 -67 90 -14 4 -149 8 -300 9 -329 1 -371 -7 -436
-84 -12 -14 -37 -42 -55 -62 -19 -19 -70 -75 -114 -123 -121 -133 -124 -137
-179 -197 -28 -30 -85 -93 -126 -138 -41 -46 -88 -98 -105 -115 -16 -18 -66
-72 -110 -121 -44 -48 -91 -100 -105 -115 -14 -15 -47 -52 -74 -81 -27 -30
-83 -92 -125 -137 -42 -46 -88 -97 -103 -114 -16 -17 -29 -26 -29 -22 -1 5 -2
282 -3 615 -1 558 -3 607 -19 632 -39 59 -46 61 -322 62 -152 0 -265 -3 -282
-10z"/>
</g>
</svg>
