<?xml version="1.0" encoding="UTF-8" standalone="no"?>
<svg
   xmlns:dc="http://purl.org/dc/elements/1.1/"
   xmlns:cc="http://creativecommons.org/ns#"
   xmlns:rdf="http://www.w3.org/1999/02/22-rdf-syntax-ns#"
   xmlns:svg="http://www.w3.org/2000/svg"
   xmlns="http://www.w3.org/2000/svg"
   id="svg855"
   version="1.1"
   viewBox="0 0 479.55148 202.17198"
   height="202.17198"
   width="479.55148">
  <metadata
     id="metadata859">
    <rdf:RDF>
      <cc:Work
         rdf:about="">
        <dc:format>image/svg+xml</dc:format>
        <dc:type
           rdf:resource="http://purl.org/dc/dcmitype/StillImage" />
        <dc:title></dc:title>
      </cc:Work>
    </rdf:RDF>
  </metadata>
  <defs
     id="defs835">
    <style
       id="style833">.a{font-size:125px;font-family:Rubik-Regular, Rubik;}.b,.c{font-family:Rubik-Medium, Rubik;font-weight:500;}.c{font-size:126px;}.d{fill:#fff;font-size:280px;font-family:LucidaConsole, Lucida Console;}</style>
  </defs>
  <g
     transform="translate(-27.89255,-17.654247)"
     id="g857">
    <path
       d="m 30.658891,219.82623 q -1.257428,0 -2.011884,-0.76559 -0.754457,-0.89319 -0.754457,-2.16917 v -83.3215 q 0,-1.40357 0.754457,-2.16917 0.754456,-0.89319 2.011884,-0.89319 h 34.327778 q 13.328735,0 20.118845,6.50751 6.79011,6.5075 6.79011,16.97053 0,7.14549 -3.269312,11.99422 -3.269312,4.72112 -7.67031,6.89029 5.40694,2.67956 9.05348,8.29387 3.646541,5.61431 3.646541,12.8874 0,7.14549 -3.269312,13.01499 -3.14357,5.86952 -9.430709,9.31467 -6.287139,3.44514 -14.96339,3.44514 z m 32.441637,-51.422 q 8.17328,0 12.448535,-3.70034 4.275254,-3.82794 4.275254,-10.59064 0,-6.63509 -4.275254,-10.08024 -4.149512,-3.44514 -12.448535,-3.44514 H 39.712371 v 27.81636 z m 1.257428,41.34176 q 8.047537,0 12.574277,-4.33834 4.652483,-4.46592 4.652483,-11.35622 0,-7.01789 -4.652483,-11.35622 -4.52674,-4.33833 -12.574277,-4.33833 H 39.712371 v 31.38911 z"
       style="font-style:normal;font-variant:normal;font-weight:normal;font-stretch:normal;font-size:126.667px;font-family:Rubik;-inkscape-font-specification:Rubik;stroke-width:0.948618"
       id="path853" />
    <path
       d="m 104.86678,219.82623 q -1.00595,0 -1.7604,-0.76559 -0.75446,-0.76559 -0.75446,-1.78637 l 0.25148,-1.40358 31.18422,-82.55591 q 1.00593,-2.80717 4.02376,-2.80717 h 8.04754 q 3.01783,0 4.02377,2.80717 l 31.18421,82.55591 0.25148,1.40358 q 0,1.02078 -0.8802,1.78637 -0.75445,0.76559 -1.76039,0.76559 h -5.90991 q -1.25743,0 -2.13763,-0.63799 -0.75445,-0.76559 -1.00595,-1.53117 l -7.04159,-18.37412 h -41.62086 l -6.91585,18.37412 q -1.00595,2.16916 -3.14357,2.16916 z m 19.74162,-31.13391 h 34.45351 l -17.22675,-45.8077 z"
       style="font-style:normal;font-variant:normal;font-weight:normal;font-stretch:normal;font-size:126.667px;font-family:Rubik;-inkscape-font-specification:Rubik;stroke-width:0.948618"
       id="path855" />
    <path
       d="m 197.66102,219.82623 q -1.25743,0 -2.01188,-0.76559 -0.75446,-0.89319 -0.75446,-2.16917 v -83.3215 q 0,-1.40357 0.75446,-2.16917 0.75445,-0.89319 2.01188,-0.89319 h 34.32778 q 13.32873,0 20.11884,6.50751 6.79012,6.5075 6.79012,16.97053 0,7.14549 -3.26931,11.99422 -3.26931,4.72112 -7.67032,6.89029 5.40694,2.67956 9.05348,8.29387 3.64655,5.61431 3.64655,12.8874 0,7.14549 -3.26931,13.01499 -3.14358,5.86952 -9.43072,9.31467 -6.28714,3.44514 -14.96338,3.44514 z m 32.44164,-51.422 q 8.17328,0 12.44853,-3.70034 4.27526,-3.82794 4.27526,-10.59064 0,-6.63509 -4.27526,-10.08024 -4.14951,-3.44514 -12.44853,-3.44514 H 206.7145 v 27.81636 z m 1.25743,41.34176 q 8.04753,0 12.57428,-4.33834 4.65248,-4.46592 4.65248,-11.35622 0,-7.01789 -4.65248,-11.35622 -4.52675,-4.33833 -12.57428,-4.33833 H 206.7145 v 31.38911 z"
       style="font-style:normal;font-variant:normal;font-weight:normal;font-stretch:normal;font-size:126.667px;font-family:Rubik;-inkscape-font-specification:Rubik;stroke-width:0.948618"
       id="path857" />
    <path
       d="m 271.8689,219.82623 q -1.00595,0 -1.7604,-0.76559 -0.75446,-0.76559 -0.75446,-1.78637 l 0.25148,-1.40358 31.18422,-82.55591 q 1.00593,-2.80717 4.02376,-2.80717 h 8.04754 q 3.01783,0 4.02377,2.80717 l 31.18421,82.55591 0.25148,1.40358 q 0,1.02078 -0.8802,1.78637 -0.75446,0.76559 -1.7604,0.76559 H 339.77 q -1.25743,0 -2.13763,-0.63799 -0.75447,-0.76559 -1.00595,-1.53117 l -7.04159,-18.37412 h -41.62086 l -6.91585,18.37412 q -1.00595,2.16916 -3.14358,2.16916 z m 19.74161,-31.13391 h 34.45352 l -17.22676,-45.8077 z"
       style="font-style:normal;font-variant:normal;font-weight:normal;font-stretch:normal;font-size:126.667px;font-family:Rubik;-inkscape-font-specification:Rubik;stroke-width:0.948618"
       id="path859" />
    <path
       d="m 363.65721,219.82623 q -1.25742,0 -2.13763,-0.89318 -0.8802,-0.89319 -0.8802,-2.16917 v -83.06631 q 0,-1.40358 0.75446,-2.29677 0.8802,-0.89319 2.26337,-0.89319 h 11.31685 q 1.38318,0 2.26338,0.89319 0.88019,0.89319 0.88019,2.29677 v 29.85794 l 28.04065,-30.75113 q 1.88613,-2.29677 4.90396,-2.29677 H 423.888 q 1.00595,0 1.7604,0.7656 0.8802,0.76559 0.8802,1.91397 0,0.89318 -0.62872,1.53118 l -34.20203,38.5346 36.71689,42.23494 q 0.50297,0.89319 0.50297,1.65877 0,1.14838 -0.75445,1.91397 -0.75446,0.76559 -1.7604,0.76559 h -13.20299 q -2.6406,0 -3.77228,-1.02078 -1.1317,-1.14838 -1.25743,-1.27598 l -30.05253,-33.68588 v 32.92029 q 0,1.27598 -0.88019,2.16917 -0.8802,0.89318 -2.26338,0.89318 z"
       style="font-style:normal;font-variant:normal;font-weight:500;font-stretch:normal;font-size:126.667px;font-family:Rubik;-inkscape-font-specification:'Rubik Medium';stroke-width:0.948618"
       id="path861" />
    <g
       class="c"
       style="font-style:normal;font-variant:normal;font-weight:bold;font-stretch:normal;font-size:126px;font-family:Rubik-Medium, Rubik;-inkscape-font-specification:'Rubik-Medium, Rubik Bold'"
       id="text847"
       aria-label="U">
      <path
         id="path864"
         style="font-style:normal;font-variant:normal;font-weight:500;font-stretch:normal;font-family:Rubik;-inkscape-font-specification:'Rubik Medium'"
         d="m 389.37192,107.53124 q -17.136,0 -26.586,-8.694 -9.45,-8.694 -9.45,-26.334 v -51.282 q 0,-1.386 0.756,-2.268 0.882,-0.882 2.268,-0.882 h 11.592 q 1.386,0 2.268,0.882 0.882,0.882 0.882,2.268 v 51.282 q 0,9.954 4.662,14.994 4.788,5.04 13.482,5.04 8.694,0 13.356,-5.04 4.788,-5.04 4.788,-14.994 v -51.282 q 0,-1.386 0.882,-2.268 0.882,-0.882 2.268,-0.882 h 11.592 q 1.386,0 2.142,0.882 0.882,0.882 0.882,2.268 v 51.282 q 0,17.64 -9.45,26.334 -9.324,8.694 -26.334,8.694 z" />
    </g>
    <path
       d="m 442.07504,17.654247 h 65.36901 V 219.28854 h -65.36901 z"
       style="stroke-width:0.965207"
       id="rect849" />
    <g
       class="d"
       style="font-style:normal;font-variant:normal;font-weight:normal;font-stretch:normal;font-size:271.509px;font-family:'Lucida Console';-inkscape-font-specification:'Lucida Console';fill:#ffffff;stroke-width:1.19235"
       id="text853"
       transform="scale(1.0250698,0.97554333)"
       aria-label=";">
      <path
         id="path868"
         style="font-style:normal;font-variant:normal;font-weight:normal;font-stretch:normal;font-size:271.509px;font-family:'Lucida Console';-inkscape-font-specification:'Lucida Console';stroke-width:1.19235"
         d="m 443.65621,215.39159 v -13.1247 q 14.71557,-1.72345 16.30644,-29.43115 H 443.65621 V 133.5942 h 39.24153 v 23.73053 q 0,55.9457 -39.24153,58.06686 z m 0,-147.288327 V 28.861727 h 39.24153 v 39.241536 z" />
    </g>
  </g>
</svg>
